<svg width="90" height="90" viewBox="0 0 90 90" fill="none" xmlns="http://www.w3.org/2000/svg">
<g clip-path="url(#clip0_4462_1472)">
<circle cx="45.1151" cy="48.4577" r="33.8289" fill="#FFCC00"/>
<circle cx="45.1147" cy="6.40008" r="5.48577" fill="#FFCC00"/>
<circle cx="45.3716" cy="48.3716" r="17.3716" fill="white"/>
<path d="M29.8508 12.2836C28.2377 10.6704 26.3226 9.39086 24.215 8.51786C22.1074 7.64485 19.8484 7.19552 17.5672 7.19552C15.2859 7.19552 13.027 7.64485 10.9193 8.51786C8.81172 9.39086 6.89669 10.6704 5.28359 12.2836C3.67048 13.8967 2.3909 15.8117 1.51789 17.9193C0.644888 20.0269 0.195558 22.2859 0.195559 24.5671C0.195559 26.8484 0.644889 29.1073 1.51789 31.215C2.3909 33.3226 3.67048 35.2376 5.28359 36.8507L17.5672 24.5671L29.8508 12.2836Z" fill="#6E6E6E"/>
<path d="M60.1414 12.2836C61.7545 10.6704 63.6696 9.39086 65.7772 8.51786C67.8848 7.64485 70.1437 7.19552 72.425 7.19552C74.7063 7.19552 76.9652 7.64485 79.0728 8.51786C81.1805 9.39086 83.0955 10.6704 84.7086 12.2836C86.3217 13.8967 87.6013 15.8117 88.4743 17.9193C89.3473 20.0269 89.7966 22.2859 89.7966 24.5671C89.7966 26.8484 89.3473 29.1073 88.4743 31.215C87.6013 33.3226 86.3217 35.2376 84.7086 36.8507L72.425 24.5671L60.1414 12.2836Z" fill="#6E6E6E"/>
<path d="M66.1436 79.5238L71.8693 74.9723L77.1034 81.5567C78.3602 83.1378 78.0974 85.4384 76.5163 86.6953C74.9352 87.9522 72.6345 87.6893 71.3777 86.1082L66.1436 79.5238Z" fill="#6E6E6E"/>
<path d="M24.5215 79.5237L18.7958 74.9722L13.5617 81.5566C12.3048 83.1377 12.5676 85.4383 14.1488 86.6952C15.7299 87.952 18.0305 87.6892 19.2874 86.1081L24.5215 79.5237Z" fill="#6E6E6E"/>
<circle cx="45.5" cy="48.5" r="3.5" fill="#6E6E6E"/>
<path d="M45.5 26L45.5 48.5L58.5 48.5" stroke="#6E6E6E" stroke-width="2" stroke-linecap="round"/>
</g>
<defs>
<clipPath id="clip0_4462_1472">
<rect width="90" height="90" fill="white"/>
</clipPath>
</defs>
</svg>
