<svg width="91" height="90" viewBox="0 0 91 90" fill="none" xmlns="http://www.w3.org/2000/svg">
<g clip-path="url(#clip0_4546_1737)">
<rect width="90" height="90" transform="translate(0.625)" fill="white"/>
<circle cx="45.3125" cy="13.4375" r="12.9375" fill="#FFCC00"/>
<path d="M64.6254 73.0004C68.5787 69.047 71.2236 63.9756 72.2028 58.4711C73.182 52.9667 72.4484 47.2943 70.101 42.22C67.7536 37.1458 63.9055 32.9142 59.0764 30.0967C54.2474 27.2792 48.67 26.0115 43.0975 26.465C37.525 26.9184 32.2259 29.071 27.9158 32.6321C23.6058 36.1933 20.4924 40.9913 18.9962 46.3783C17.5 51.7653 17.693 57.4816 19.5492 62.7554C21.4055 68.0292 24.8354 72.6063 29.3759 75.8685L45.3125 53.6875L64.6254 73.0004Z" fill="#FFCC00"/>
<circle cx="46" cy="48" r="9" fill="#6E6E6E"/>
<circle cx="20.625" cy="48" r="9" fill="#6E6E6E"/>
<circle cx="70.625" cy="48" r="9" fill="#6E6E6E"/>
<path d="M89.625 76C89.625 73.5049 89.1335 71.0342 88.1787 68.729C87.2239 66.4238 85.8243 64.3293 84.06 62.565C82.2957 60.8007 80.2012 59.4011 77.896 58.4463C75.5908 57.4914 73.1201 57 70.625 57C68.1299 57 65.6592 57.4914 63.354 58.4463C61.0488 59.4011 58.9543 60.8007 57.19 62.565C55.4257 64.3293 54.0261 66.4238 53.0713 68.729C52.1164 71.0342 51.625 73.5049 51.625 76L70.625 76H89.625Z" fill="#6E6E6E"/>
<path d="M65 76C65 73.5049 64.5085 71.0342 63.5537 68.729C62.5989 66.4238 61.1993 64.3293 59.435 62.565C57.6707 60.8007 55.5762 59.4011 53.271 58.4463C50.9658 57.4914 48.4951 57 46 57C43.5049 57 41.0342 57.4914 38.729 58.4463C36.4238 59.4011 34.3293 60.8007 32.565 62.565C30.8007 64.3293 29.4011 66.4238 28.4463 68.729C27.4914 71.0342 27 73.5049 27 76L46 76H65Z" fill="#6E6E6E"/>
<path d="M39.625 76C39.625 73.5049 39.1335 71.0342 38.1787 68.729C37.2239 66.4238 35.8243 64.3293 34.06 62.565C32.2957 60.8007 30.2012 59.4011 27.896 58.4463C25.5908 57.4914 23.1201 57 20.625 57C18.1299 57 15.6592 57.4914 13.354 58.4463C11.0488 59.4011 8.95428 60.8007 7.18997 62.565C5.42566 64.3293 4.02613 66.4238 3.07129 68.729C2.11645 71.0342 1.625 73.5049 1.625 76L20.625 76H39.625Z" fill="#6E6E6E"/>
<path d="M89.625 89L1.625 89" stroke="#FFCC00" stroke-width="2" stroke-linecap="round"/>
<path d="M89.625 83L1.625 83" stroke="#6E6E6E" stroke-width="2" stroke-linecap="round"/>
<circle cx="78.625" cy="68" r="3" fill="#FFCC00"/>
<circle cx="46" cy="68" r="3" fill="#FFCC00"/>
<circle cx="12.625" cy="68" r="3" fill="#FFCC00"/>
</g>
<defs>
<clipPath id="clip0_4546_1737">
<rect width="90" height="90" fill="white" transform="translate(0.625)"/>
</clipPath>
</defs>
</svg>
