<svg width="91" height="90" viewBox="0 0 91 90" fill="none" xmlns="http://www.w3.org/2000/svg">
<g clip-path="url(#clip0_4462_1487)">
<rect width="90" height="90" transform="translate(0.625)" fill="white"/>
<path d="M27.625 43C27.625 40.7909 25.8341 39 23.625 39C21.4159 39 19.625 40.7909 19.625 43L19.625 86C19.625 88.2091 21.4159 90 23.625 90C25.8341 90 27.625 88.2091 27.625 86L27.625 43Z" fill="#FFCC00"/>
<path d="M27.625 2L27.625 17" stroke="#6E6E6E" stroke-width="2" stroke-linecap="round"/>
<path d="M59.625 48C59.625 45.7909 57.8341 44 55.625 44C53.4159 44 51.625 45.7909 51.625 48L51.625 80C51.625 82.2091 53.4159 84 55.625 84C57.8341 84 59.625 82.2091 59.625 80L59.625 48Z" fill="#6E6E6E"/>
<path d="M59.625 37C59.625 34.7909 57.8341 33 55.625 33C53.4159 33 51.625 34.7909 51.625 37C51.625 39.2091 53.4159 41 55.625 41C57.8341 41 59.625 39.2091 59.625 37Z" fill="#FFCC00"/>
<path d="M74.625 55C74.625 52.7909 72.8341 51 70.625 51C68.4159 51 66.625 52.7909 66.625 55C66.625 57.2091 68.4159 59 70.625 59C72.8341 59 74.625 57.2091 74.625 55Z" fill="#FFCC00"/>
<path d="M89.625 24C89.625 21.7909 87.8341 20 85.625 20C83.4159 20 81.625 21.7909 81.625 24C81.625 26.2091 83.4159 28 85.625 28C87.8341 28 89.625 26.2091 89.625 24Z" fill="#FFCC00"/>
<path d="M74.625 66C74.625 63.7909 72.8341 62 70.625 62C68.4159 62 66.625 63.7909 66.625 66L66.625 80C66.625 82.2091 68.4159 84 70.625 84C72.8341 84 74.625 82.2091 74.625 80L74.625 66Z" fill="#6E6E6E"/>
<path d="M89.625 35C89.625 32.7909 87.8341 31 85.625 31C83.4159 31 81.625 32.7909 81.625 35L81.625 80C81.625 82.2091 83.4159 84 85.625 84C87.8341 84 89.625 82.2091 89.625 80L89.625 35Z" fill="#6E6E6E"/>
<path d="M89.625 88H51.625" stroke="#FFCC00" stroke-width="2" stroke-linecap="round"/>
<path d="M34.625 7L34.625 33" stroke="#6E6E6E" stroke-width="2" stroke-linecap="round"/>
<path d="M12.625 7L12.625 33" stroke="#6E6E6E" stroke-width="2" stroke-linecap="round"/>
<path d="M40.625 15L40.625 30" stroke="#6E6E6E" stroke-width="2" stroke-linecap="round"/>
<path d="M6.625 15L6.625 30" stroke="#6E6E6E" stroke-width="2" stroke-linecap="round"/>
<path d="M19.625 2L19.625 17" stroke="#6E6E6E" stroke-width="2" stroke-linecap="round"/>
<path d="M17.625 28.5C17.625 33.5159 20.0633 37.8636 23.625 40C27.1867 37.8636 29.625 33.5159 29.625 28.5C29.625 23.4841 27.1867 19.1364 23.625 17C20.0633 19.1364 17.625 23.4841 17.625 28.5Z" fill="#FFCC00"/>
<path d="M30.2677 37.6757C26.3397 40.795 24.4513 45.4082 24.9932 49.526C28.8812 50.9866 33.8023 50.1923 37.7303 47.073C41.6583 43.9537 43.5466 39.3405 43.0047 35.2227C39.1167 33.7621 34.1957 34.5564 30.2677 37.6757Z" fill="#FFCC00"/>
<path d="M30.2677 53.1517C26.3397 56.271 24.4513 60.8842 24.9932 65.002C28.8812 66.4626 33.8023 65.6683 37.7303 62.549C41.6583 59.4297 43.5466 54.8164 43.0047 50.6987C39.1167 49.2381 34.1957 50.0323 30.2677 53.1517Z" fill="#FFCC00"/>
<path d="M30.2677 68.1517C26.3397 71.271 24.4513 75.8842 24.9932 80.002C28.8812 81.4626 33.8023 80.6683 37.7303 77.549C41.6583 74.4297 43.5466 69.8164 43.0047 65.6987C39.1167 64.2381 34.1957 65.0323 30.2677 68.1517Z" fill="#FFCC00"/>
<path d="M17.0937 37.6757C21.0217 40.795 22.91 45.4082 22.3681 49.526C18.4801 50.9866 13.5591 50.1923 9.63105 47.073C5.70304 43.9537 3.8147 39.3405 4.35659 35.2227C8.24459 33.7621 13.1656 34.5564 17.0937 37.6757Z" fill="#FFCC00"/>
<path d="M17.0937 53.1517C21.0217 56.271 22.91 60.8842 22.3681 65.002C18.4801 66.4626 13.5591 65.6683 9.63105 62.549C5.70304 59.4297 3.8147 54.8164 4.35659 50.6987C8.24459 49.2381 13.1656 50.0323 17.0937 53.1517Z" fill="#FFCC00"/>
<path d="M17.0937 68.1517C21.0217 71.271 22.91 75.8842 22.3681 80.002C18.4801 81.4626 13.5591 80.6683 9.63105 77.549C5.70304 74.4297 3.8147 69.8164 4.35659 65.6987C8.24459 64.2381 13.1656 65.0323 17.0937 68.1517Z" fill="#FFCC00"/>
</g>
<defs>
<clipPath id="clip0_4462_1487">
<rect width="90" height="90" fill="white" transform="translate(0.625)"/>
</clipPath>
</defs>
</svg>
