<svg width="90" height="90" viewBox="0 0 90 90" fill="none" xmlns="http://www.w3.org/2000/svg">
<g clip-path="url(#clip0_4759_11877)">
<rect width="90" height="90" fill="white"/>
<circle cx="44.6875" cy="13.4375" r="12.9375" fill="#FFCC00"/>
<path d="M64.0004 73.0004C67.9537 69.047 70.5986 63.9756 71.5778 58.4711C72.557 52.9667 71.8234 47.2943 69.476 42.22C67.1286 37.1458 63.2805 32.9142 58.4514 30.0967C53.6224 27.2792 48.045 26.0115 42.4725 26.465C36.9 26.9184 31.6009 29.071 27.2908 32.6321C22.9808 36.1933 19.8674 40.9913 18.3712 46.3783C16.875 51.7653 17.068 57.4816 18.9242 62.7554C20.7805 68.0292 24.2104 72.6063 28.7509 75.8685L44.6875 53.6875L64.0004 73.0004Z" fill="#FFCC00"/>
<circle cx="70" cy="48" r="9" fill="#6E6E6E"/>
<circle cx="45.375" cy="48" r="9" fill="#6E6E6E"/>
<circle cx="20" cy="48" r="9" fill="#6E6E6E"/>
<path d="M89 76C89 73.5049 88.5085 71.0342 87.5537 68.729C86.5989 66.4238 85.1993 64.3293 83.435 62.565C81.6707 60.8007 79.5762 59.4011 77.271 58.4463C74.9658 57.4914 72.4951 57 70 57C67.5049 57 65.0342 57.4914 62.729 58.4463C60.4238 59.4011 58.3293 60.8007 56.565 62.565C54.8007 64.3293 53.4011 66.4238 52.4463 68.729C51.4914 71.0342 51 73.5049 51 76L70 76H89Z" fill="#6E6E6E"/>
<path d="M64.375 76C64.375 73.5049 63.8835 71.0342 62.9287 68.729C61.9739 66.4238 60.5743 64.3293 58.81 62.565C57.0457 60.8007 54.9512 59.4011 52.646 58.4463C50.3408 57.4914 47.8701 57 45.375 57C42.8799 57 40.4092 57.4914 38.104 58.4463C35.7988 59.4011 33.7043 60.8007 31.94 62.565C30.1757 64.3293 28.7761 66.4238 27.8213 68.729C26.8664 71.0342 26.375 73.5049 26.375 76L45.375 76H64.375Z" fill="#6E6E6E"/>
<path d="M39 76C39 73.5049 38.5085 71.0342 37.5537 68.729C36.5989 66.4238 35.1993 64.3293 33.435 62.565C31.6707 60.8007 29.5762 59.4011 27.271 58.4463C24.9658 57.4914 22.4951 57 20 57C17.5049 57 15.0342 57.4914 12.729 58.4463C10.4238 59.4011 8.32928 60.8007 6.56497 62.565C4.80066 64.3293 3.40113 66.4238 2.44629 68.729C1.49145 71.0342 1 73.5049 1 76L20 76H39Z" fill="#6E6E6E"/>
<path d="M89 89L1 89" stroke="#FFCC00" stroke-width="2" stroke-linecap="round"/>
<path d="M89 83L1 83" stroke="#6E6E6E" stroke-width="2" stroke-linecap="round"/>
<circle cx="78" cy="68" r="3" fill="#FFCC00"/>
<circle cx="45.375" cy="68" r="3" fill="#FFCC00"/>
<circle cx="12" cy="68" r="3" fill="#FFCC00"/>
</g>
<defs>
<clipPath id="clip0_4759_11877">
<rect width="90" height="90" fill="white"/>
</clipPath>
</defs>
</svg>
