<svg width="18" height="18" viewBox="0 0 18 18" fill="none" xmlns="http://www.w3.org/2000/svg">
<g clip-path="url(#clip0_5997_37409)">
<path fill-rule="evenodd" clip-rule="evenodd" d="M9.21973 0.716797C11.4721 0.830919 13.2634 2.69291 13.2637 4.97363L13.2578 5.19336C13.1854 6.62187 12.4091 7.86373 11.2695 8.58203C11.6688 8.68618 12.0615 8.81702 12.4443 8.97559L12.8486 9.1543C13.7815 9.59562 14.6329 10.1945 15.3643 10.9258L15.6689 11.2471C16.3617 12.0117 16.9187 12.8905 17.3145 13.8457L17.4746 14.2588C17.8221 15.2304 18 16.2559 18 17.29H17C17 16.3708 16.8412 15.4594 16.5322 14.5957L16.3906 14.2285C16.0388 13.3792 15.5437 12.5977 14.9277 11.918L14.6572 11.6328C14.0072 10.9828 13.2501 10.4509 12.4209 10.0586L12.0615 9.89941C11.2123 9.54766 10.3097 9.34493 9.39355 9.2998L9 9.29004C8.0807 9.29004 7.16941 9.44884 6.30566 9.75781L5.93848 9.89941C5.08916 10.2512 4.30768 10.7463 3.62793 11.3623L3.34277 11.6328C2.69275 12.2829 2.16083 13.0399 1.76855 13.8691L1.60938 14.2285C1.20737 15.1991 1 16.2395 1 17.29H0C0 16.1082 0.23329 14.9376 0.685547 13.8457L0.864258 13.4414C1.30557 12.5085 1.90445 11.6571 2.63574 10.9258L2.95703 10.6211C3.72162 9.92828 4.60041 9.37132 5.55566 8.97559L5.96875 8.81543C6.21869 8.72603 6.47223 8.64786 6.72852 8.58105C5.59031 7.86264 4.8155 6.62096 4.74316 5.19336L4.7373 4.97363C4.73755 2.61952 6.64589 0.711187 9 0.710938L9.21973 0.716797ZM9 1.71094C7.19817 1.71119 5.73755 3.17181 5.7373 4.97363C5.7373 6.77567 7.19802 8.23705 9 8.2373C10.8022 8.2373 12.2637 6.77583 12.2637 4.97363C12.2634 3.17165 10.802 1.71094 9 1.71094Z" fill="#2C2C2C"/>
</g>
<defs>
<clipPath id="clip0_5997_37409">
<rect width="18" height="18" fill="white"/>
</clipPath>
</defs>
</svg>
