<svg width="18" height="18" viewBox="0 0 18 18" fill="none" xmlns="http://www.w3.org/2000/svg">
<path d="M11.9492 15.5C11.9337 15.576 11.9151 15.6513 11.8926 15.7256L11.8096 15.957C11.684 16.26 11.4998 16.5353 11.2676 16.7676C11.0934 16.9417 10.8948 17.0884 10.6787 17.2041L10.457 17.3096C10.1537 17.4352 9.82822 17.5 9.5 17.5C9.25389 17.5 9.00927 17.4638 8.77441 17.3926L8.54297 17.3096C8.24004 17.184 7.96468 16.9998 7.73242 16.7676C7.55826 16.5934 7.41155 16.3948 7.2959 16.1787L7.19043 15.957C7.1292 15.8092 7.08265 15.6561 7.05078 15.5H11.9492ZM9.5 0.5C10.6046 0.5 11.5 1.39543 11.5 2.5V2.90625L11.7725 3.0459C13.3925 3.87427 14.5 5.55798 14.5 7.5V12.1758L14.6094 12.3125L15.959 14H3.04102L4.39062 12.3125L4.5 12.1758V7.5C4.5 5.55798 5.60747 3.87427 7.22754 3.0459L7.5 2.90625V2.5C7.5 1.39543 8.39543 0.5 9.5 0.5Z" stroke="#2C2C2C"/>
</svg>
