<svg width="18" height="18" viewBox="0 0 18 18" fill="none" xmlns="http://www.w3.org/2000/svg">
<g clip-path="url(#clip0_5849_12147)">
<path fill-rule="evenodd" clip-rule="evenodd" d="M7.11328 0.154487C8.77348 -0.161646 10.4927 0.00919259 12.0615 0.650581L12.3721 0.785346C13.9104 1.48489 15.2156 2.61629 16.127 4.04511C17.0384 5.47418 17.5145 7.13531 17.5 8.82539L17.4902 9.16328C17.4049 10.9691 16.7619 12.7043 15.6504 14.1301C14.539 15.5556 13.0134 16.6018 11.2832 17.1252C9.66422 17.6148 7.94046 17.6237 6.32031 17.1555C6.02946 17.3709 5.671 17.5002 5.28125 17.5002C4.31475 17.5002 3.53125 16.7167 3.53125 15.7502C3.53136 14.7838 4.31482 14.0002 5.28125 14.0002C6.24768 14.0002 7.03114 14.7838 7.03125 15.7502C7.03125 15.9373 7.00065 16.1173 6.94629 16.2863C8.27815 16.605 9.67468 16.5669 10.9932 16.1682C12.5258 15.7046 13.8778 14.7777 14.8623 13.5148C15.8465 12.2522 16.4156 10.7156 16.4912 9.1164L16.5 8.8166C16.5128 7.31982 16.0913 5.84884 15.2842 4.5832C14.4769 3.31753 13.3207 2.31513 11.958 1.6955L11.6826 1.57636C10.2933 1.00845 8.77099 0.857039 7.30078 1.13691L7.00684 1.19843C5.54415 1.53606 4.21336 2.29131 3.17383 3.36835L2.96973 3.5871C1.90311 4.78131 1.23308 6.27758 1.05078 7.86835L1.02344 7.86445C1.28058 7.9652 1.52242 8.10457 1.73828 8.28144L1.93262 8.4582C2.43071 8.95629 2.71088 9.63172 2.71094 10.3361L2.69824 10.5988C2.63785 11.2068 2.3684 11.7782 1.93262 12.2141C1.43447 12.7122 0.759169 12.9924 0.0546875 12.9924V7.67988C0.0585943 7.67988 0.0625012 7.67986 0.0664062 7.67988C0.284383 5.91163 1.03603 4.25076 2.22363 2.92109L2.4541 2.67304C3.62774 1.45717 5.13091 0.605946 6.78223 0.224799L7.11328 0.154487ZM5.28125 15.0002C4.8671 15.0002 4.53136 15.3361 4.53125 15.7502C4.53125 16.1644 4.86704 16.5002 5.28125 16.5002C5.69546 16.5002 6.03125 16.1644 6.03125 15.7502C6.03114 15.3361 5.6954 15.0002 5.28125 15.0002ZM1.05469 11.6545C1.07113 11.642 1.08849 11.6305 1.10449 11.6174L1.22559 11.507C1.53613 11.1964 1.71094 10.7753 1.71094 10.3361C1.71089 9.95182 1.5774 9.581 1.33594 9.28632L1.22559 9.16523C1.17201 9.11167 1.11437 9.06304 1.05469 9.01777V11.6545Z" fill="#2C2C2C"/>
<path d="M9.29688 10.9728H8.29688V8.59785H9.29688V10.9728Z" fill="#2C2C2C"/>
<path d="M8.75 7.01191C9.02607 7.01191 9.24989 7.23586 9.25 7.51191C9.25 7.78805 9.02614 8.01191 8.75 8.01191C8.47386 8.01191 8.25 7.78805 8.25 7.51191C8.25011 7.23586 8.47393 7.01191 8.75 7.01191Z" fill="#2C2C2C"/>
<path fill-rule="evenodd" clip-rule="evenodd" d="M8.79688 3.90644C11.4978 3.90644 13.6874 6.09614 13.6875 8.79706C13.6875 11.4981 11.4979 13.6877 8.79688 13.6877C6.09586 13.6877 3.90625 11.4981 3.90625 8.79706C3.90636 6.09614 6.09592 3.90644 8.79688 3.90644ZM8.79688 4.90644C6.64821 4.90644 4.90636 6.64843 4.90625 8.79706C4.90625 10.9458 6.64814 12.6877 8.79688 12.6877C10.9456 12.6877 12.6875 10.9458 12.6875 8.79706C12.6874 6.64843 10.9455 4.90644 8.79688 4.90644Z" fill="#2C2C2C"/>
</g>
<defs>
<clipPath id="clip0_5849_12147">
<rect width="18" height="18" fill="white"/>
</clipPath>
</defs>
</svg>
