<svg width="70" height="64" viewBox="0 0 70 64" fill="none" xmlns="http://www.w3.org/2000/svg">
<path d="M0 28.3127C0 26.3899 0.921502 24.5836 2.47819 23.455L31.3081 2.55331C33.409 1.03019 36.2509 1.03019 38.3517 2.55331L67.1817 23.455C68.7384 24.5836 69.6599 26.3899 69.6599 28.3127V58C69.6599 61.3137 66.9736 64 63.6599 64H6C2.68629 64 0 61.3137 0 58V28.3127Z" fill="#FFCC00"/>
<path d="M15.125 23.207C15.125 21.5502 16.4681 20.207 18.125 20.207H50.2679C51.9247 20.207 53.2679 21.5502 53.2679 23.207V36.3499L34.1964 46.6356L15.125 36.3499V23.207Z" fill="white"/>
<path d="M6.64648 32.2119L34.2927 47.8854L61.939 32.2119" stroke="#8C8C8C" stroke-width="2" stroke-linecap="round"/>
<path d="M26.6426 28.2129H43.0176" stroke="#FFCC00" stroke-width="2" stroke-linecap="round"/>
<path d="M26.6426 34.2129H43.0176" stroke="#FFCC00" stroke-width="2" stroke-linecap="round"/>
</svg>
