<svg width="90" height="90" viewBox="0 0 90 90" fill="none" xmlns="http://www.w3.org/2000/svg">
<g clip-path="url(#clip0_5843_37443)">
<rect x="5" width="77" height="56" rx="6" fill="#FFCC00"/>
<rect x="13" y="8" width="62" height="40" rx="3" fill="white"/>
<rect y="58" width="90" height="11" rx="5.5" fill="#FFCC00"/>
<rect x="58" y="28" width="32" height="62" rx="6" fill="#8C8C8C"/>
<line x1="71" y1="34" x2="78" y2="34" stroke="#FFCC00" stroke-width="2" stroke-linecap="round"/>
<line x1="22" y1="17" x2="50" y2="17" stroke="#8C8C8C" stroke-width="2" stroke-linecap="round"/>
<line x1="22" y1="24" x2="40" y2="24" stroke="#8C8C8C" stroke-width="2" stroke-linecap="round"/>
<line x1="22" y1="31" x2="40" y2="31" stroke="#8C8C8C" stroke-width="2" stroke-linecap="round"/>
<circle cx="74.5" cy="59.5" r="11.5" fill="white"/>
<path d="M80.44 65C80.44 64.2488 80.292 63.505 80.0046 62.8111C79.7171 62.1171 79.2958 61.4865 78.7647 60.9553C78.2335 60.4242 77.6029 60.0029 76.9089 59.7154C76.215 59.428 75.4712 59.28 74.72 59.28C73.9688 59.28 73.225 59.428 72.5311 59.7154C71.8371 60.0029 71.2065 60.4242 70.6753 60.9553C70.1442 61.4865 69.7229 62.1171 69.4354 62.8111C69.148 63.505 69 64.2488 69 65L80.44 65Z" fill="#FFCC00"/>
<path d="M77.8 57.08C77.8 58.781 76.421 60.16 74.72 60.16C73.019 60.16 71.64 58.781 71.64 57.08C71.64 55.379 73.019 54 74.72 54C76.421 54 77.8 55.379 77.8 57.08Z" fill="#FFCC00"/>
</g>
<defs>
<clipPath id="clip0_5843_37443">
<rect width="90" height="90" fill="white"/>
</clipPath>
</defs>
</svg>
