<svg width="208" height="306" viewBox="0 0 208 306" fill="none" xmlns="http://www.w3.org/2000/svg">
<path d="M89.4004 142.277L207.999 215.73V177.493L104.778 113.455L89.4004 142.277Z" fill="#F58220"/>
<path d="M41.3923 244.701L130.229 305.774H207.998V299.733L49.9442 202.145L41.3923 244.701Z" fill="#FFC20E"/>
<path d="M63.7585 195.792L207.999 291.254V224.385L91.3586 151.867L63.7585 195.792Z" fill="#749660"/>
<path d="M13.2349 253.614L83.6896 305.774H120.127L28.3537 242.453L13.2349 253.614Z" fill="#447449"/>
<path d="M0.75415 305.774H72.1334L22.3718 267.457L0.75415 305.774Z" fill="#636466"/>
<path d="M167.632 -0.387207L148.91 33.6638L207.999 73.0513V-0.387207H167.632Z" fill="#FFC20E"/>
<path d="M183.826 144.864L208 157.529V139.799L183.826 144.864Z" fill="#A7A9AC"/>
<path d="M132.364 59.6285L207.999 111.328V81.4623L144.995 40.6255L132.364 59.6285Z" fill="#F58220"/>
<path d="M120.292 78.2662L203.622 133.826L208 132.539V117.044L129.455 64.2476L120.292 78.2662Z" fill="#FFCC00"/>
<path d="M114.2 86.1357L193.887 136.86L177.735 142.278L109.958 99.7751L114.2 86.1357Z" fill="#447449"/>
</svg>
