<svg width="320" height="138" viewBox="0 0 320 138" fill="none" xmlns="http://www.w3.org/2000/svg">
<path d="M0 108.071V83.5786L56.5831 2.14533H96.0036V83.8467H112.183V108.071H96.0036V135.335H65.7902V108.071H0ZM65.7902 83.8467V31.733H65.7008L29.8559 83.668V83.8467H65.7902Z" fill="white"/>
<path d="M160.045 137.48C148.365 137.48 138.323 134.709 129.921 129.167C121.518 123.625 115.052 115.729 110.523 105.479C106.054 95.1693 103.819 82.9529 103.819 68.8294C103.819 54.6464 106.054 42.4299 110.523 32.18C115.052 21.8705 121.518 13.9447 129.921 8.40255C138.323 2.80085 148.365 0 160.045 0C171.784 0 181.856 2.80085 190.258 8.40255C198.661 13.9447 205.097 21.8705 209.566 32.18C214.036 42.4299 216.27 54.6464 216.27 68.8294C216.27 83.0125 214.036 95.2289 209.566 105.479C205.097 115.729 198.661 123.625 190.258 129.167C181.856 134.709 171.784 137.48 160.045 137.48ZM160.045 112.272C168.09 112.272 174.436 108.399 179.085 100.652C183.733 92.9048 186.057 82.2973 186.057 68.8294C186.057 55.3019 183.733 44.6646 179.085 36.9176C174.436 29.111 168.09 25.2077 160.045 25.2077C152 25.2077 145.653 29.111 141.005 36.9176C136.416 44.6646 134.122 55.3019 134.122 68.8294C134.122 82.2973 136.416 92.9048 141.005 100.652C145.653 108.399 152 112.272 160.045 112.272Z" fill="#FFCC00"/>
<path d="M207.817 108.071V83.5786L264.4 2.14533H303.821V83.8467H320V108.071H303.821V135.335H273.607V108.071H207.817ZM273.607 83.8467V31.733H273.518L237.673 83.668V83.8467H273.607Z" fill="white"/>
</svg>
