<svg width="70" height="64" viewBox="0 0 70 64" fill="none" xmlns="http://www.w3.org/2000/svg">
<path d="M0.169922 28.3127C0.169922 26.3899 1.09142 24.5836 2.64812 23.455L31.478 2.55331C33.5789 1.03019 36.4208 1.03019 38.5217 2.55331L67.3516 23.455C68.9083 24.5836 69.8298 26.3899 69.8298 28.3127V58C69.8298 61.3137 67.1435 64 63.8298 64H6.16992C2.85621 64 0.169922 61.3137 0.169922 58V28.3127Z" fill="#FFCC00"/>
<path d="M15.2949 23.2073C15.2949 21.5505 16.6381 20.2073 18.2949 20.2073H50.4378C52.0946 20.2073 53.4378 21.5505 53.4378 23.2073V36.3502L34.3664 46.6359L15.2949 36.3502V23.2073Z" fill="white"/>
<path d="M6.81641 32.2123L34.4627 47.8858L62.1089 32.2123" stroke="#6E6E6E" stroke-width="2" stroke-linecap="round"/>
<path d="M26.8125 28.2124H43.1875" stroke="#FFCC00" stroke-width="2" stroke-linecap="round"/>
<path d="M26.8125 34.2124H43.1875" stroke="#FFCC00" stroke-width="2" stroke-linecap="round"/>
</svg>
