<svg width="91" height="36" viewBox="0 0 91 36" fill="none" xmlns="http://www.w3.org/2000/svg">
<path d="M26.7793 36V28.2131L43.24 9.1506H26.7793L28.5569 0H58.6771V8.03819L42.3272 26.8494H59.8597L58.0894 36H26.7793Z" fill="#FFCC00"/>
<path d="M35.5011 0L22.215 17.089L37.2233 36H22.0561L11.9409 22.0967V36H0V0H11.9409V13.7555L21.6754 0H35.5011Z" fill="#6E6E6E"/>
<mask id="mask0_4746_104" style="mask-type:luminance" maskUnits="userSpaceOnUse" x="0" y="0" width="91" height="36">
<path d="M90.4232 0H0V36H90.4232V0Z" fill="white"/>
</mask>
<g mask="url(#mask0_4746_104)">
<path d="M69.9822 9.05082V17.041H73.3711C75.2375 17.041 76.5088 16.7786 77.1925 16.2575C77.8725 15.7364 78.2125 14.7829 78.2125 13.4007V12.6911C78.2125 11.3422 77.8725 10.3998 77.1925 9.86018C76.5125 9.3206 75.2375 9.05082 73.3711 9.05082H69.9822ZM69.9822 26.04V36H57.8232V0H74.1768C77.1186 0 79.6169 0.210656 81.6791 0.631968C83.7413 1.05328 85.4155 1.74438 86.709 2.70527C87.9988 3.66615 88.9412 4.91161 89.5325 6.44533C90.1238 7.97906 90.4232 9.86018 90.4232 12.0813V13.9513C90.4232 15.9064 90.1275 17.636 89.5325 19.1364C88.9412 20.6369 88.0025 21.9008 86.709 22.9282C85.4155 23.9557 83.7339 24.7318 81.6532 25.2528C79.5725 25.7776 77.0262 26.0363 74.0142 26.0363H69.9822V26.04Z" fill="#6E6E6E"/>
</g>
</svg>
