<svg width="90" height="36" viewBox="0 0 90 36" fill="none" xmlns="http://www.w3.org/2000/svg">
<path d="M41.7306 26.8484L55.6744 10.8115L55.7177 0H37.3785L30.2695 9.15156H42.6472L29.4395 24.0625L39.1035 35.9928H55.7177V26.8484H41.7306Z" fill="white"/>
<path d="M22.2149 17.0906L35.4948 0H21.6736L11.9375 13.749V0H0V35.9928H11.9375V22.0922L22.0489 35.9928H37.2125L22.2149 17.0906Z" fill="white"/>
<path d="M77.6079 13.3953C77.6079 14.7811 77.2687 15.7265 76.5902 16.2534C75.9118 16.7731 74.6343 17.0329 72.7723 17.0329H69.3801V9.05052H72.7723C74.6343 9.05052 75.9118 9.32478 76.5902 9.85886C77.2687 10.4002 77.6079 11.3384 77.6079 12.6881V13.3953ZM88.9319 6.44507C88.34 4.90778 87.4018 3.6664 86.1099 2.7065C84.818 1.74659 83.1436 1.05373 81.0794 0.627907C79.0153 0.209302 76.5181 0 73.5734 0H57.2262V36H69.3801V26.0401H73.4146C76.4242 26.0401 78.972 25.7803 81.0506 25.2534C83.1291 24.7338 84.8108 23.9543 86.1099 22.9222C87.4018 21.8974 88.34 20.6343 88.9319 19.1331C89.5237 17.6319 89.8196 15.8998 89.8196 13.9511V12.0818C89.8196 9.85886 89.5237 7.98236 88.9319 6.44507Z" fill="white"/>
</svg>
