<svg width="16" height="17" viewBox="0 0 16 17" fill="none" xmlns="http://www.w3.org/2000/svg">
<path d="M5.53266 13.1821C9.20054 16.85 12.0196 17.7707 15.3424 14.4479C15.8624 13.914 16.3488 13.2392 15.6587 12.5493L12.969 10.4925C12.1201 10.0358 11.7886 10.3606 11.3868 10.8089C9.91844 12.4479 8.33425 11.9039 7.27333 10.8089L5.69113 9.22667C4.59608 8.16563 4.05212 6.58128 5.69113 5.11316C6.13956 4.7114 6.46421 4.37976 6.0075 3.53096L3.95067 0.841255C3.26062 0.151207 2.58592 0.637569 2.05194 1.15763C-1.27068 4.48025 -0.350124 7.29933 3.31776 10.9673L5.53266 13.1821Z" fill="#FF6600"/>
</svg>
