<svg width="101" height="62" viewBox="0 0 101 62" fill="none" xmlns="http://www.w3.org/2000/svg">
<rect width="101" height="53" fill="#6E6E6E"/>
<path d="M34.877 43.4428V36.209L50.1685 18.5006H34.877L36.5284 10H64.5089V17.4672L49.3205 34.9422H65.6076L63.963 43.4428H34.877Z" fill="#FFCC00"/>
<path d="M42.9793 10L30.6369 25.8751L44.5791 43.4428H30.4893L21.0927 30.5271V43.4428H10V10H21.0927V22.7784L30.1357 10H42.9793Z" fill="white"/>
<mask id="mask0_4754_706" style="mask-type:luminance" maskUnits="userSpaceOnUse" x="10" y="10" width="84" height="34">
<path d="M94 10H10V43.4428H94V10Z" fill="white"/>
</mask>
<g mask="url(#mask0_4754_706)">
<path d="M75.011 18.4079V25.8305H78.1592C79.893 25.8305 81.074 25.5867 81.7091 25.1026C82.3409 24.6185 82.6567 23.7328 82.6567 22.4488V21.7896C82.6567 20.5365 82.3409 19.661 81.7091 19.1598C81.0774 18.6585 79.893 18.4079 78.1592 18.4079H75.011ZM75.011 34.1903V43.4428H63.7158V10H78.9077C81.6405 10 83.9613 10.1957 85.877 10.5871C87.7928 10.9785 89.348 11.6205 90.5496 12.5131C91.7478 13.4057 92.6233 14.5627 93.1726 15.9875C93.7219 17.4123 94 19.1598 94 21.2231V22.9603C94 24.7765 93.7253 26.3832 93.1726 27.7771C92.6233 29.171 91.7512 30.3451 90.5496 31.2995C89.348 32.254 87.7859 32.9749 85.853 33.459C83.9201 33.9465 81.5547 34.1869 78.7566 34.1869H75.011V34.1903Z" fill="white"/>
</g>
<path d="M42 53.0001L50.4853 53L58.9706 52.9999L50.4853 61.4854L42 53.0001Z" fill="#6E6E6E"/>
</svg>
