<svg width="24" height="24" viewBox="0 0 24 24" fill="none" xmlns="http://www.w3.org/2000/svg">
<rect width="24" height="24" rx="12" fill="#FFCC00"/>
<path d="M12.57 6.47C13.53 6.47 14.275 6.68 14.805 7.1C15.345 7.52 15.615 8.13 15.615 8.93C15.615 9.76 15.12 10.63 14.13 11.54C13.67 11.96 13.325 12.35 13.095 12.71C12.865 13.07 12.75 13.525 12.75 14.075V14.57H11.415V14.3C11.415 12.99 11.9 11.905 12.87 11.045C13.77 10.245 14.22 9.545 14.22 8.945C14.22 8.565 14.08 8.255 13.8 8.015C13.52 7.765 13.115 7.64 12.585 7.64C11.615 7.64 11.055 8.125 10.905 9.095H9.705C9.685 8.935 9.675 8.815 9.675 8.735C9.675 7.975 9.965 7.41 10.545 7.04C11.125 6.66 11.8 6.47 12.57 6.47ZM11.415 16.91C11.235 16.73 11.145 16.51 11.145 16.25C11.145 15.99 11.235 15.77 11.415 15.59C11.595 15.41 11.815 15.32 12.075 15.32C12.335 15.32 12.555 15.41 12.735 15.59C12.915 15.77 13.005 15.99 13.005 16.25C13.005 16.51 12.915 16.73 12.735 16.91C12.555 17.09 12.335 17.18 12.075 17.18C11.815 17.18 11.595 17.09 11.415 16.91Z" fill="white"/>
</svg>
