<svg width="337" height="499" viewBox="0 0 337 499" fill="none" xmlns="http://www.w3.org/2000/svg">
<path d="M144.33 232.015L336.998 351.795V289.442L169.311 185.013L144.33 232.015Z" fill="#F58220"/>
<path d="M66.3389 399.039L210.658 498.631H336.997V488.78L80.2318 329.641L66.3389 399.039Z" fill="#FFC20E"/>
<path d="M102.674 319.282L336.999 474.953V365.908L147.511 247.652L102.674 319.282Z" fill="#749660"/>
<path d="M20.5957 413.573L135.052 498.631H194.247L45.1568 395.373L20.5957 413.573Z" fill="#447449"/>
<path d="M0.320312 498.631H116.279L35.4391 436.146L0.320312 498.631Z" fill="#636466"/>
<path d="M271.42 -0.631348L241.006 54.8963L336.998 119.126V-0.631348H271.42Z" fill="#FFC20E"/>
<path d="M297.729 236.233L337 256.885V227.973L297.729 236.233Z" fill="#A7A9AC"/>
<path d="M214.126 97.2377L336.998 181.545V132.843L234.645 66.2491L214.126 97.2377Z" fill="#F58220"/>
<path d="M194.514 127.63L329.887 218.232L336.999 216.134V190.866L209.401 104.77L194.514 127.63Z" fill="#FFCC00"/>
<path d="M184.619 140.463L314.073 223.18L287.833 232.015L177.728 162.705L184.619 140.463Z" fill="#447449"/>
</svg>
