<svg width="275" height="501" viewBox="0 0 275 501" fill="none" xmlns="http://www.w3.org/2000/svg">
<path d="M129.181 234.882L-64.9987 355.602V292.76L104.004 187.511L129.181 234.882Z" fill="#F58220"/>
<path d="M207.785 403.216L62.3336 503.59H-64.9974V493.661L193.783 333.273L207.785 403.216Z" fill="#FFC20E"/>
<path d="M171.164 322.833L-64.9996 479.726V369.826L125.975 250.642L171.164 322.833Z" fill="#749660"/>
<path d="M253.886 417.865L138.531 503.59H78.873L229.132 399.522L253.886 417.865Z" fill="#447449"/>
<path d="M274.321 503.589H157.452L238.926 440.614L274.321 503.589Z" fill="#636466"/>
<path d="M1.09337 0.410156L31.7463 56.3734L-64.9985 121.107V0.410156H1.09337Z" fill="#FFC20E"/>
<path d="M58.8374 99.0471L-64.9986 184.016V134.931L38.1573 67.8154L58.8374 99.0471Z" fill="#F58220"/>
<path d="M78.6033 129.678L-57.8322 220.991L-65.0002 218.877V193.41L63.5996 106.638L78.6033 129.678Z" fill="#FFCC00"/>
<path d="M88.5767 142.612L-41.893 225.978L-15.4473 234.882L95.522 165.028L88.5767 142.612Z" fill="#447449"/>
</svg>
