<svg width="16" height="14" viewBox="0 0 16 14" fill="none" xmlns="http://www.w3.org/2000/svg">
<path fill-rule="evenodd" clip-rule="evenodd" d="M14.4115 0.137397C13.7813 0.312607 6.66439 2.37171 0.86951 4.03645C0.408244 4.18255 0.0749963 4.55622 0.00960543 4.96693C-0.0557855 5.37764 0.216599 5.73011 0.583425 5.8333C0.896679 5.92909 4.03739 6.83559 4.03739 6.83559L4.13072 12.0954L7.37869 10.182L4.81556 6.4185L11.1999 4.13655L5.83065 7.60824L7.37869 9.92104C7.46949 10.0385 9.36436 12.924 9.50056 13.1002C9.72754 13.394 10.0744 13.9666 10.2887 13.9962C10.6637 14.0481 11.1204 13.5865 11.4037 12.8387C11.6789 12.1422 13.5432 7.31049 15.9369 0.873009C16.212 0.176492 15.5646 -0.227837 14.4115 0.137397Z" fill="white"/>
</svg>
