<svg width="18" height="18" viewBox="0 0 18 18" fill="none" xmlns="http://www.w3.org/2000/svg">
<path d="M9.21973 0.716309C11.4721 0.830431 13.2634 2.69242 13.2637 4.97314L13.2578 5.19287C13.1854 6.62138 12.4091 7.86325 11.2695 8.58154C11.6688 8.6857 12.0615 8.81653 12.4443 8.9751L12.8486 9.15381C13.7815 9.59513 14.6329 10.194 15.3643 10.9253L15.6689 11.2466C16.3617 12.0112 16.9187 12.89 17.3145 13.8452L17.4746 14.2583C17.8221 15.2299 18 16.2554 18 17.2896H17C17 16.3703 16.8412 15.4589 16.5322 14.5952L16.3906 14.228C16.0388 13.3787 15.5437 12.5972 14.9277 11.9175L14.6572 11.6323C14.0072 10.9823 13.2501 10.4504 12.4209 10.0581L12.0615 9.89893C11.2123 9.54717 10.3097 9.34444 9.39355 9.29932L9 9.28955C8.0807 9.28955 7.16941 9.44835 6.30566 9.75732L5.93848 9.89893C5.08916 10.2508 4.30768 10.7458 3.62793 11.3618L3.34277 11.6323C2.69275 12.2824 2.16083 13.0394 1.76855 13.8687L1.60938 14.228C1.20737 15.1986 1 16.239 1 17.2896H0C0 16.1077 0.23329 14.9371 0.685547 13.8452L0.864258 13.4409C1.30557 12.508 1.90445 11.6566 2.63574 10.9253L2.95703 10.6206C3.72162 9.92779 4.60041 9.37083 5.55566 8.9751L5.96875 8.81494C6.21869 8.72554 6.47223 8.64737 6.72852 8.58057C5.59031 7.86215 4.8155 6.62047 4.74316 5.19287L4.7373 4.97314C4.73755 2.61903 6.64589 0.710699 9 0.710449L9.21973 0.716309ZM9 1.71045C7.19817 1.7107 5.73755 3.17132 5.7373 4.97314C5.7373 6.77518 7.19802 8.23657 9 8.23682C10.8022 8.23682 12.2637 6.77534 12.2637 4.97314C12.2634 3.17116 10.802 1.71045 9 1.71045Z" fill="#2C2C2C"/>
</svg>
