<svg width="24" height="24" viewBox="0 0 24 24" fill="none" xmlns="http://www.w3.org/2000/svg">
<g clip-path="url(#clip0_4759_12085)">
<circle cx="11.9996" cy="5.68421" r="5.68421" fill="#FFCC00"/>
<path d="M24 23.3684C24 21.7925 23.6896 20.2321 23.0866 18.7762C22.4835 17.3203 21.5996 15.9974 20.4853 14.8831C19.371 13.7688 18.0481 12.8849 16.5922 12.2819C15.1363 11.6788 13.5759 11.3684 12 11.3684C10.4241 11.3684 8.86371 11.6788 7.4078 12.2819C5.95189 12.8849 4.62902 13.7688 3.51472 14.8831C2.40042 15.9974 1.5165 17.3203 0.913445 18.7762C0.310389 20.2321 -1.37766e-07 21.7925 0 23.3684L12 23.3684H24Z" fill="#FFCC00"/>
</g>
<defs>
<clipPath id="clip0_4759_12085">
<rect width="24" height="24" fill="white"/>
</clipPath>
</defs>
</svg>
