<svg width="16" height="16" viewBox="0 0 16 16" fill="none" xmlns="http://www.w3.org/2000/svg">
<path fill-rule="evenodd" clip-rule="evenodd" d="M7.99982 -0.000183105C3.57798 -0.000183105 -0.000183105 3.57599 -0.000183105 7.99982C-0.000183105 9.66816 0.508589 11.2114 1.41232 12.5373C1.44596 12.5872 1.46792 12.644 1.47658 12.7035C1.48523 12.763 1.48036 12.8237 1.46232 12.8811L0.649817 15.5998L3.31232 14.6811C3.36923 14.6621 3.42967 14.6562 3.48918 14.6638C3.54868 14.6714 3.60572 14.6922 3.65607 14.7248C4.90317 15.534 6.39613 15.9998 7.99982 15.9998C12.4237 15.9998 15.9998 12.4237 15.9998 7.99982C15.9998 3.57587 12.4237 -0.000183105 7.99982 -0.000183105ZM4.72482 3.48732L6.18107 5.89358L5.57482 6.49358C5.51309 6.55586 5.47354 6.63668 5.46225 6.72363C5.45096 6.81058 5.46855 6.89884 5.51232 6.97482C6.43748 8.57694 7.53365 9.82336 9.06857 10.4998C9.14212 10.5325 9.22382 10.5422 9.30299 10.5277C9.38215 10.5132 9.45511 10.4752 9.51232 10.4186L10.1561 9.77482L12.5061 11.2436C12.2458 11.8292 11.9066 12.1779 11.5186 12.3811C11.0691 12.6164 10.5201 12.661 9.89357 12.5311C8.64054 12.2712 7.12699 11.2865 5.89357 10.0248C4.66014 8.7632 3.70565 7.22907 3.46232 5.98105C3.34065 5.35705 3.3944 4.81966 3.62482 4.39358C3.82321 4.02672 4.16021 3.71264 4.72482 3.48732Z" fill="white"/>
</svg>
