<svg width="64" height="64" viewBox="0 0 64 64" fill="none" xmlns="http://www.w3.org/2000/svg">
<g clip-path="url(#clip0_4553_5041)">
<path d="M10 0H55V22.5C55 34.9264 44.9264 45 32.5 45C20.0736 45 10 34.9264 10 22.5V0Z" fill="#FFCC00"/>
<rect x="13" y="57.1429" width="38.3297" height="6.85714" rx="3.42857" fill="#6E6E6E"/>
<rect x="35.5938" y="15.967" width="38.3297" height="6.85714" transform="rotate(90 35.5938 15.967)" fill="#FFCC00"/>
<circle cx="32.5" cy="21.5" r="13.5" fill="white"/>
<path d="M32.8885 15C33.3992 15 33.9048 15.1006 34.3767 15.296C34.8485 15.4915 35.2772 15.7779 35.6383 16.139C35.9994 16.5001 36.2859 16.9289 36.4813 17.4007C36.6768 17.8725 36.7773 18.3782 36.7773 18.8889C36.7773 19.3996 36.6768 19.9053 36.4813 20.3771C36.2859 20.8489 35.9994 21.2776 35.6383 21.6387C35.2772 21.9999 34.8485 22.2863 34.3767 22.4818C33.9048 22.6772 33.3992 22.7778 32.8885 22.7778" stroke="#6E6E6E" stroke-width="2"/>
<path d="M28 26H35.8125" stroke="#6E6E6E" stroke-width="2" stroke-linecap="round"/>
<path d="M30.1875 22.7812H32" stroke="#6E6E6E" stroke-width="2" stroke-linecap="square"/>
<path d="M30.1875 15H32" stroke="#6E6E6E" stroke-width="2" stroke-linecap="square"/>
<path d="M31 15.0156L31 14.0156L29 14.0156L29 15.0156L31 15.0156ZM29 29.1875C29 29.7398 29.4477 30.1875 30 30.1875C30.5523 30.1875 31 29.7398 31 29.1875L29 29.1875ZM29 15.0156L29 29.1875L31 29.1875L31 15.0156L29 15.0156Z" fill="#6E6E6E"/>
</g>
<defs>
<clipPath id="clip0_4553_5041">
<rect width="64" height="64" fill="white"/>
</clipPath>
</defs>
</svg>
