<svg width="90" height="90" viewBox="0 0 90 90" fill="none" xmlns="http://www.w3.org/2000/svg">
<rect width="90" height="90" rx="45" fill="#6E6E6E"/>
<path d="M27.486 73.7354C23.1476 71.0628 19.4706 67.4425 16.7309 63.1461C13.9911 58.8497 12.2598 53.9887 11.6668 48.9278C11.0738 43.8668 11.6345 38.7372 13.3068 33.9239C14.979 29.1105 17.7195 24.7383 21.3226 21.1351" stroke="#FFCC00" stroke-width="2" stroke-linecap="round"/>
<path d="M62.889 73.7354C67.2274 71.0628 70.9044 67.4425 73.6441 63.1461C76.3839 58.8497 78.1152 53.9887 78.7082 48.9278C79.3012 43.8668 78.7405 38.7372 77.0682 33.9239C75.396 29.1105 72.6555 24.7383 69.0524 21.1351" stroke="#FFCC00" stroke-width="2" stroke-linecap="round"/>
<path d="M36.0312 53.7588V49.9697L44.0411 40.6939H36.0312L36.8963 36.2412H51.5527V40.1526L43.5969 49.3062H52.1282L51.2668 53.7588H36.0312Z" fill="#FFCC00"/>
<path d="M40.2749 36.2412L33.8098 44.5567L41.1129 53.7588H33.7325L28.8104 46.9935V53.7588H23V36.2412H28.8104V42.9346L33.5473 36.2412H40.2749Z" fill="white"/>
<mask id="mask0_4556_5376" style="mask-type:luminance" maskUnits="userSpaceOnUse" x="23" y="36" width="44" height="18">
<path d="M67 36.2412H23V53.7588H67V36.2412Z" fill="white"/>
</mask>
<g mask="url(#mask0_4556_5376)">
<path d="M57.0542 40.6453V44.5334H58.7033C59.6115 44.5334 60.2301 44.4057 60.5628 44.1521C60.8937 43.8985 61.0591 43.4346 61.0591 42.762V42.4167C61.0591 41.7603 60.8937 41.3017 60.5628 41.0392C60.2319 40.7766 59.6115 40.6453 58.7033 40.6453H57.0542ZM57.0542 48.9123V53.7588H51.1377V36.2412H59.0954C60.5268 36.2412 61.7425 36.3437 62.746 36.5487C63.7495 36.7537 64.5641 37.09 65.1935 37.5576C65.8211 38.0252 66.2797 38.6312 66.5675 39.3775C66.8552 40.1238 67.0009 41.0392 67.0009 42.12V43.0299C67.0009 43.9813 66.857 44.8229 66.5675 45.553C66.2797 46.2831 65.8229 46.8982 65.1935 47.3981C64.5641 47.8981 63.7459 48.2757 62.7334 48.5293C61.7209 48.7846 60.4819 48.9105 59.0162 48.9105H57.0542V48.9123Z" fill="white"/>
</g>
<circle cx="45" cy="14" r="3" fill="#FFCC00"/>
<circle cx="45" cy="77" r="3" fill="#FFCC00"/>
</svg>
