<svg width="91" height="90" viewBox="0 0 91 90" fill="none" xmlns="http://www.w3.org/2000/svg">
<g clip-path="url(#clip0_4556_5418)">
<circle cx="46" cy="45" r="45" fill="#FFCC00"/>
<circle cx="45.625" cy="25" r="9" fill="#6E6E6E"/>
<path d="M64.625 53C64.625 50.5049 64.1335 48.0342 63.1787 45.729C62.2239 43.4238 60.8243 41.3293 59.06 39.565C57.2957 37.8007 55.2012 36.4011 52.896 35.4463C50.5908 34.4914 48.1201 34 45.625 34C43.1299 34 40.6592 34.4914 38.354 35.4463C36.0488 36.4011 33.9543 37.8007 32.19 39.565C30.4257 41.3293 29.0261 43.4238 28.0713 45.729C27.1164 48.0342 26.625 50.5049 26.625 53L45.625 53H64.625Z" fill="#6E6E6E"/>
<circle cx="45.6251" cy="48.6858" r="6.94243" fill="white"/>
<path d="M60.2812 70.2845C60.2812 68.3599 59.9022 66.454 59.1656 64.6758C58.4291 62.8977 57.3495 61.282 55.9885 59.921C54.6276 58.5601 53.0119 57.4805 51.2337 56.7439C49.4555 56.0074 47.5497 55.6283 45.625 55.6283C43.7003 55.6283 41.7945 56.0074 40.0163 56.7439C38.2381 57.4805 36.6224 58.5601 35.2615 59.921C33.9005 61.282 32.8209 62.8977 32.0844 64.6758C31.3478 66.454 30.9687 68.3599 30.9688 70.2845L45.625 70.2845H60.2812Z" fill="white"/>
<circle cx="45.625" cy="63.6283" r="3" fill="#FFCC00"/>
<path d="M28.486 73.7354C24.1476 71.0628 20.4706 67.4425 17.7309 63.1461C14.9911 58.8497 13.2598 53.9887 12.6668 48.9278C12.0738 43.8668 12.6345 38.7372 14.3068 33.9239C15.979 29.1105 18.7195 24.7383 22.3226 21.1351" stroke="white" stroke-width="2" stroke-linecap="round"/>
<path d="M63.889 73.7354C68.2274 71.0628 71.9044 67.4425 74.6441 63.1461C77.3839 58.8497 79.1152 53.9887 79.7082 48.9278C80.3012 43.8668 79.7405 38.7372 78.0682 33.9239C76.396 29.1105 73.6555 24.7383 70.0524 21.1351" stroke="white" stroke-width="2" stroke-linecap="round"/>
</g>
<defs>
<clipPath id="clip0_4556_5418">
<rect width="90" height="90" fill="white" transform="translate(0.625)"/>
</clipPath>
</defs>
</svg>
