<svg width="91" height="90" viewBox="0 0 91 90" fill="none" xmlns="http://www.w3.org/2000/svg">
<rect x="0.625" width="90" height="90" rx="45" fill="#FFCC00"/>
<path d="M36.5654 41.7059C36.5654 39.8866 35.0906 38.4118 33.2713 38.4118C31.452 38.4118 29.9772 39.8866 29.9772 41.7059L29.9772 68.0588C29.9772 69.8781 31.452 71.353 33.2713 71.353C35.0906 71.353 36.5654 69.8781 36.5654 68.0588L36.5654 41.7059Z" fill="#6E6E6E"/>
<path d="M36.5654 32.6471C36.5654 30.8278 35.0906 29.3529 33.2713 29.3529C31.452 29.3529 29.9772 30.8278 29.9772 32.6471C29.9772 34.4663 31.452 35.9412 33.2713 35.9412C35.0906 35.9412 36.5654 34.4663 36.5654 32.6471Z" fill="white"/>
<path d="M48.9189 47.4706C48.9189 45.6513 47.4441 44.1765 45.6248 44.1765C43.8055 44.1765 42.3307 45.6513 42.3307 47.4706C42.3307 49.2899 43.8055 50.7647 45.6248 50.7647C47.4441 50.7647 48.9189 49.2899 48.9189 47.4706Z" fill="white"/>
<path d="M61.2715 21.9412C61.2715 20.1219 59.7967 18.6471 57.9774 18.6471C56.1581 18.6471 54.6832 20.1219 54.6832 21.9412C54.6832 23.7605 56.1581 25.2353 57.9774 25.2353C59.7967 25.2353 61.2715 23.7605 61.2715 21.9412Z" fill="white"/>
<path d="M48.9189 56.5294C48.9189 54.7101 47.4441 53.2353 45.6248 53.2353C43.8055 53.2353 42.3307 54.7101 42.3307 56.5294L42.3307 68.0588C42.3307 69.8781 43.8055 71.3529 45.6248 71.3529C47.4441 71.3529 48.9189 69.8781 48.9189 68.0588L48.9189 56.5294Z" fill="#6E6E6E"/>
<path d="M61.2715 31C61.2715 29.1807 59.7967 27.7059 57.9774 27.7059C56.1581 27.7059 54.6832 29.1807 54.6832 31L54.6832 68.0588C54.6832 69.8781 56.1581 71.353 57.9774 71.353C59.7967 71.353 61.2715 69.8781 61.2715 68.0588L61.2715 31Z" fill="#6E6E6E"/>
<path d="M28.486 73.7354C24.1476 71.0628 20.4706 67.4425 17.7309 63.1461C14.9911 58.8497 13.2598 53.9887 12.6668 48.9278C12.0738 43.8668 12.6345 38.7372 14.3068 33.9239C15.979 29.1105 18.7195 24.7383 22.3226 21.1351" stroke="white" stroke-width="2" stroke-linecap="round"/>
<path d="M63.889 73.7354C68.2274 71.0628 71.9044 67.4425 74.6441 63.1461C77.3839 58.8497 79.1152 53.9887 79.7082 48.9278C80.3012 43.8668 79.7405 38.7372 78.0682 33.9239C76.396 29.1105 73.6555 24.7383 70.0524 21.1351" stroke="white" stroke-width="2" stroke-linecap="round"/>
</svg>
