<svg width="91" height="90" viewBox="0 0 91 90" fill="none" xmlns="http://www.w3.org/2000/svg">
<rect x="0.625" width="90" height="90" rx="45" fill="#6E6E6E"/>
<path d="M48.4941 42.8182C48.4941 41.2115 47.1917 39.9091 45.585 39.9091C43.9784 39.9091 42.676 41.2115 42.676 42.8182L42.676 74.0909C42.676 75.6976 43.9784 77 45.585 77C47.1917 77 48.4941 75.6976 48.4941 74.0909L48.4941 42.8182Z" fill="#FFCC00"/>
<path d="M48.4941 13L48.4941 23.9091" stroke="white" stroke-width="2" stroke-linecap="round"/>
<path d="M53.585 16.6364L53.585 35.5454" stroke="white" stroke-width="2" stroke-linecap="round"/>
<path d="M37.585 16.6364L37.585 35.5454" stroke="white" stroke-width="2" stroke-linecap="round"/>
<path d="M57.9482 22.4546L57.9482 33.3637" stroke="white" stroke-width="2" stroke-linecap="round"/>
<path d="M33.2207 22.4546L33.2207 33.3637" stroke="white" stroke-width="2" stroke-linecap="round"/>
<path d="M42.6758 13L42.6758 23.9091" stroke="white" stroke-width="2" stroke-linecap="round"/>
<path d="M41.2207 32.2727C41.2207 35.9207 42.994 39.0826 45.5843 40.6364C48.1746 39.0826 49.948 35.9207 49.948 32.2727C49.948 28.6248 48.1746 25.4629 45.5843 23.9091C42.994 25.4629 41.2207 28.6248 41.2207 32.2727Z" fill="#FFCC00"/>
<path d="M50.4162 38.946C47.5594 41.2146 46.1861 44.5696 46.5802 47.5644C49.4078 48.6266 52.9868 48.049 55.8435 45.7804C58.7003 43.5118 60.0736 40.1567 59.6795 37.162C56.8519 36.0997 53.2729 36.6774 50.4162 38.946Z" fill="#FFCC00"/>
<path d="M50.4162 50.2012C47.5594 52.4698 46.1861 55.8249 46.5802 58.8196C49.4078 59.8819 52.9868 59.3042 55.8435 57.0356C58.7003 54.767 60.0736 51.412 59.6795 48.4172C56.8519 47.355 53.2729 47.9326 50.4162 50.2012Z" fill="#FFCC00"/>
<path d="M50.4162 61.1103C47.5594 63.3789 46.1861 66.734 46.5802 69.7287C49.4078 70.7909 52.9868 70.2133 55.8435 67.9447C58.7003 65.6761 60.0736 62.3211 59.6795 59.3263C56.8519 58.2641 53.2729 58.8417 50.4162 61.1103Z" fill="#FFCC00"/>
<path d="M40.8348 38.946C43.6915 41.2146 45.0649 44.5696 44.6708 47.5644C41.8431 48.6266 38.2642 48.049 35.4075 45.7804C32.5507 43.5118 31.1774 40.1567 31.5715 37.162C34.3991 36.0997 37.9781 36.6774 40.8348 38.946Z" fill="#FFCC00"/>
<path d="M40.8348 50.2012C43.6915 52.4698 45.0649 55.8249 44.6708 58.8196C41.8431 59.8819 38.2642 59.3042 35.4075 57.0356C32.5507 54.767 31.1774 51.412 31.5715 48.4172C34.3991 47.355 37.9781 47.9326 40.8348 50.2012Z" fill="#FFCC00"/>
<path d="M40.8348 61.1103C43.6915 63.3789 45.0649 66.734 44.6708 69.7287C41.8431 70.7909 38.2642 70.2133 35.4075 67.9447C32.5507 65.6761 31.1774 62.3211 31.5715 59.3263C34.3991 58.2641 37.9781 58.8417 40.8348 61.1103Z" fill="#FFCC00"/>
<path d="M28.486 73.7354C24.1476 71.0628 20.4706 67.4425 17.7309 63.1461C14.9911 58.8497 13.2598 53.9887 12.6668 48.9278C12.0738 43.8668 12.6345 38.7372 14.3068 33.9239C15.979 29.1105 18.7195 24.7383 22.3226 21.1351" stroke="#FFCC00" stroke-width="2" stroke-linecap="round"/>
<path d="M63.889 73.7354C68.2274 71.0628 71.9044 67.4425 74.6441 63.1461C77.3839 58.8497 79.1152 53.9887 79.7082 48.9278C80.3012 43.8668 79.7405 38.7372 78.0682 33.9239C76.396 29.1105 73.6555 24.7383 70.0524 21.1351" stroke="#FFCC00" stroke-width="2" stroke-linecap="round"/>
</svg>
