<svg width="24" height="24" viewBox="0 0 24 24" fill="none" xmlns="http://www.w3.org/2000/svg">
<g clip-path="url(#clip0_5849_13790)">
<circle cx="11.9996" cy="5.68421" r="5.68421" fill="#FFCC00"/>
<path d="M24 23.3691C24 21.7933 23.6896 20.2328 23.0866 18.7769C22.4835 17.321 21.5996 15.9982 20.4853 14.8839C19.371 13.7696 18.0481 12.8856 16.5922 12.2826C15.1363 11.6795 13.5759 11.3691 12 11.3691C10.4241 11.3691 8.86371 11.6795 7.4078 12.2826C5.95189 12.8856 4.62902 13.7696 3.51472 14.8839C2.40042 15.9982 1.5165 17.321 0.913445 18.7769C0.310389 20.2328 -1.37766e-07 21.7933 0 23.3691L12 23.3691H24Z" fill="#FFCC00"/>
</g>
<defs>
<clipPath id="clip0_5849_13790">
<rect width="24" height="24" fill="white"/>
</clipPath>
</defs>
</svg>
