<svg width="91" height="89" viewBox="0 0 91 89" fill="none" xmlns="http://www.w3.org/2000/svg">
<circle cx="45.4901" cy="48.4577" r="33.8289" fill="#FFCC00"/>
<circle cx="45.4897" cy="6.40008" r="5.48577" fill="#FFCC00"/>
<circle cx="45.7466" cy="48.3716" r="17.3716" fill="white"/>
<path d="M30.2258 12.2836C28.6127 10.6705 26.6976 9.39092 24.59 8.51792C22.4824 7.64491 20.2234 7.19558 17.9422 7.19558C15.6609 7.19558 13.402 7.64491 11.2943 8.51792C9.18672 9.39093 7.27169 10.6705 5.65859 12.2836C4.04548 13.8967 2.7659 15.8117 1.89289 17.9194C1.01989 20.027 0.570558 22.2859 0.570559 24.5672C0.570559 26.8485 1.01989 29.1074 1.89289 31.215C2.7659 33.3227 4.04548 35.2377 5.65859 36.8508L17.9422 24.5672L30.2258 12.2836Z" fill="#6E6E6E"/>
<path d="M60.5164 12.2836C62.1295 10.6705 64.0446 9.39092 66.1522 8.51792C68.2598 7.64491 70.5187 7.19558 72.8 7.19558C75.0813 7.19558 77.3402 7.64491 79.4478 8.51792C81.5555 9.39093 83.4705 10.6705 85.0836 12.2836C86.6967 13.8967 87.9763 15.8117 88.8493 17.9194C89.7223 20.027 90.1716 22.2859 90.1716 24.5672C90.1716 26.8485 89.7223 29.1074 88.8493 31.215C87.9763 33.3227 86.6967 35.2377 85.0836 36.8508L72.8 24.5672L60.5164 12.2836Z" fill="#6E6E6E"/>
<path d="M66.5186 79.5237L72.2443 74.9722L77.4784 81.5566C78.7352 83.1377 78.4724 85.4384 76.8913 86.6952C75.3102 87.9521 73.0095 87.6892 71.7527 86.1081L66.5186 79.5237Z" fill="#6E6E6E"/>
<path d="M24.8965 79.5237L19.1708 74.9722L13.9367 81.5566C12.6798 83.1377 12.9426 85.4384 14.5238 86.6952C16.1049 87.9521 18.4055 87.6892 19.6624 86.1081L24.8965 79.5237Z" fill="#6E6E6E"/>
<circle cx="45.875" cy="48.5" r="3.5" fill="#6E6E6E"/>
</svg>
