<svg width="90" height="90" viewBox="0 0 90 90" fill="none" xmlns="http://www.w3.org/2000/svg">
<rect width="90" height="90" fill="white"/>
<path d="M27 43C27 40.7909 25.2091 39 23 39C20.7909 39 19 40.7909 19 43L19 86C19 88.2091 20.7909 90 23 90C25.2091 90 27 88.2091 27 86L27 43Z" fill="#FFCC00"/>
<path d="M59 48C59 45.7909 57.2091 44 55 44C52.7909 44 51 45.7909 51 48L51 80C51 82.2091 52.7909 84 55 84C57.2091 84 59 82.2091 59 80L59 48Z" fill="#6E6E6E"/>
<path d="M59 37C59 34.7909 57.2091 33 55 33C52.7909 33 51 34.7909 51 37C51 39.2091 52.7909 41 55 41C57.2091 41 59 39.2091 59 37Z" fill="#FFCC00"/>
<path d="M74 55C74 52.7909 72.2091 51 70 51C67.7909 51 66 52.7909 66 55C66 57.2091 67.7909 59 70 59C72.2091 59 74 57.2091 74 55Z" fill="#FFCC00"/>
<path d="M89 24C89 21.7909 87.2091 20 85 20C82.7909 20 81 21.7909 81 24C81 26.2091 82.7909 28 85 28C87.2091 28 89 26.2091 89 24Z" fill="#FFCC00"/>
<path d="M74 66C74 63.7909 72.2091 62 70 62C67.7909 62 66 63.7909 66 66L66 80C66 82.2091 67.7909 84 70 84C72.2091 84 74 82.2091 74 80L74 66Z" fill="#6E6E6E"/>
<path d="M89 35C89 32.7909 87.2091 31 85 31C82.7909 31 81 32.7909 81 35L81 80C81 82.2091 82.7909 84 85 84C87.2091 84 89 82.2091 89 80L89 35Z" fill="#6E6E6E"/>
<path d="M27 2L27 17" stroke="#6E6E6E" stroke-width="2" stroke-linecap="round"/>
<path d="M89 88H51" stroke="#FFCC00" stroke-width="2" stroke-linecap="round"/>
<path d="M34 7L34 33" stroke="#6E6E6E" stroke-width="2" stroke-linecap="round"/>
<path d="M12 7L12 33" stroke="#6E6E6E" stroke-width="2" stroke-linecap="round"/>
<path d="M40 15L40 30" stroke="#6E6E6E" stroke-width="2" stroke-linecap="round"/>
<path d="M6 15L6 30" stroke="#6E6E6E" stroke-width="2" stroke-linecap="round"/>
<path d="M19 2L19 17" stroke="#6E6E6E" stroke-width="2" stroke-linecap="round"/>
<path d="M17 28.5C17 33.5159 19.4383 37.8636 23 40C26.5617 37.8636 29 33.5159 29 28.5C29 23.4841 26.5617 19.1364 23 17C19.4383 19.1364 17 23.4841 17 28.5Z" fill="#FFCC00"/>
<path d="M29.6427 37.6757C25.7147 40.795 23.8263 45.4082 24.3682 49.526C28.2562 50.9866 33.1773 50.1923 37.1053 47.073C41.0333 43.9537 42.9216 39.3405 42.3797 35.2227C38.4917 33.7621 33.5707 34.5564 29.6427 37.6757Z" fill="#FFCC00"/>
<path d="M29.6427 53.1517C25.7147 56.271 23.8263 60.8842 24.3682 65.002C28.2562 66.4626 33.1773 65.6683 37.1053 62.549C41.0333 59.4297 42.9216 54.8164 42.3797 50.6987C38.4917 49.2381 33.5707 50.0323 29.6427 53.1517Z" fill="#FFCC00"/>
<path d="M29.6427 68.1517C25.7147 71.271 23.8263 75.8842 24.3682 80.002C28.2562 81.4626 33.1773 80.6683 37.1053 77.549C41.0333 74.4297 42.9216 69.8164 42.3797 65.6987C38.4917 64.2381 33.5707 65.0323 29.6427 68.1517Z" fill="#FFCC00"/>
<path d="M16.4687 37.6757C20.3967 40.795 22.285 45.4082 21.7431 49.526C17.8551 50.9866 12.9341 50.1923 9.00605 47.073C5.07804 43.9537 3.1897 39.3405 3.73159 35.2227C7.61959 33.7621 12.5406 34.5564 16.4687 37.6757Z" fill="#FFCC00"/>
<path d="M16.4687 53.1517C20.3967 56.271 22.285 60.8842 21.7431 65.002C17.8551 66.4626 12.9341 65.6683 9.00605 62.549C5.07804 59.4297 3.1897 54.8164 3.73159 50.6987C7.61959 49.2381 12.5406 50.0323 16.4687 53.1517Z" fill="#FFCC00"/>
<path d="M16.4687 68.1517C20.3967 71.271 22.285 75.8842 21.7431 80.002C17.8551 81.4626 12.9341 80.6683 9.00605 77.549C5.07804 74.4297 3.1897 69.8164 3.73159 65.6987C7.61959 64.2381 12.5406 65.0323 16.4687 68.1517Z" fill="#FFCC00"/>
</svg>
