<svg width="70" height="70" viewBox="0 0 70 70" fill="none" xmlns="http://www.w3.org/2000/svg">
<g clip-path="url(#clip0_5843_47065)">
<rect x="3.88867" width="59.8889" height="43.5556" rx="4.66667" fill="#FFCC00"/>
<rect x="10.1113" y="6.22266" width="48.2222" height="31.1111" rx="2.33333" fill="white"/>
<rect y="45.1113" width="70" height="8.55556" rx="4.27778" fill="#FFCC00"/>
<rect x="45.1113" y="21.7773" width="24.8889" height="48.2222" rx="4.66667" fill="#8C8C8C"/>
<line x1="55.2221" y1="26.4449" x2="60.6666" y2="26.4449" stroke="#FFCC00" stroke-width="1.55556" stroke-linecap="round"/>
<line x1="17.1113" y1="13.2222" x2="38.8891" y2="13.2222" stroke="#8C8C8C" stroke-width="1.55556" stroke-linecap="round"/>
<line x1="17.1113" y1="18.6666" x2="31.1113" y2="18.6666" stroke="#8C8C8C" stroke-width="1.55556" stroke-linecap="round"/>
<line x1="17.1113" y1="24.1109" x2="31.1113" y2="24.1109" stroke="#8C8C8C" stroke-width="1.55556" stroke-linecap="round"/>
<circle cx="57.9444" cy="46.2775" r="8.94444" fill="white"/>
<path d="M62.5648 50.5556C62.5648 49.9713 62.4497 49.3928 62.2261 48.853C62.0025 48.3133 61.6748 47.8228 61.2617 47.4097C60.8486 46.9966 60.3582 46.6689 59.8184 46.4453C59.2786 46.2217 58.7001 46.1067 58.1159 46.1067C57.5316 46.1067 56.9531 46.2217 56.4134 46.4453C55.8736 46.6689 55.3832 46.9966 54.97 47.4097C54.5569 47.8228 54.2292 48.3133 54.0056 48.853C53.7821 49.3928 53.667 49.9713 53.667 50.5556L62.5648 50.5556Z" fill="#FFCC00"/>
<path d="M60.5114 44.3956C60.5114 45.7186 59.4389 46.7911 58.1159 46.7911C56.7929 46.7911 55.7203 45.7186 55.7203 44.3956C55.7203 43.0725 56.7929 42 58.1159 42C59.4389 42 60.5114 43.0725 60.5114 44.3956Z" fill="#FFCC00"/>
</g>
<defs>
<clipPath id="clip0_5843_47065">
<rect width="70" height="70" fill="white"/>
</clipPath>
</defs>
</svg>
